<?xml version="1.0" standalone="no"?>
<svg xmlns:xlink="http://www.w3.org/1999/xlink" id="wave" style="transform:rotate(0deg); transition: 0.3s" viewBox="0 0 1440 490" version="1.1" xmlns="http://www.w3.org/2000/svg"><defs><linearGradient id="sw-gradient-0" x1="0" x2="0" y1="1" y2="0"><stop stop-color="rgba(81.277, 6.114, 141.531, 1)" offset="0%"/><stop stop-color="rgba(255, 11, 181.704, 1)" offset="100%"/></linearGradient></defs><path style="transform:translate(0, 0px); opacity:1" fill="url(#sw-gradient-0)" d="M0,441L48,416.5C96,392,192,343,288,334.8C384,327,480,359,576,326.7C672,294,768,196,864,130.7C960,65,1056,33,1152,81.7C1248,131,1344,261,1440,310.3C1536,359,1632,327,1728,285.8C1824,245,1920,196,2016,204.2C2112,212,2208,278,2304,318.5C2400,359,2496,376,2592,367.5C2688,359,2784,327,2880,326.7C2976,327,3072,359,3168,351.2C3264,343,3360,294,3456,245C3552,196,3648,147,3744,163.3C3840,180,3936,261,4032,277.7C4128,294,4224,245,4320,245C4416,245,4512,294,4608,318.5C4704,343,4800,343,4896,334.8C4992,327,5088,310,5184,310.3C5280,310,5376,327,5472,302.2C5568,278,5664,212,5760,179.7C5856,147,5952,147,6048,155.2C6144,163,6240,180,6336,163.3C6432,147,6528,98,6624,130.7C6720,163,6816,278,6864,334.8L6912,392L6912,490L6864,490C6816,490,6720,490,6624,490C6528,490,6432,490,6336,490C6240,490,6144,490,6048,490C5952,490,5856,490,5760,490C5664,490,5568,490,5472,490C5376,490,5280,490,5184,490C5088,490,4992,490,4896,490C4800,490,4704,490,4608,490C4512,490,4416,490,4320,490C4224,490,4128,490,4032,490C3936,490,3840,490,3744,490C3648,490,3552,490,3456,490C3360,490,3264,490,3168,490C3072,490,2976,490,2880,490C2784,490,2688,490,2592,490C2496,490,2400,490,2304,490C2208,490,2112,490,2016,490C1920,490,1824,490,1728,490C1632,490,1536,490,1440,490C1344,490,1248,490,1152,490C1056,490,960,490,864,490C768,490,672,490,576,490C480,490,384,490,288,490C192,490,96,490,48,490L0,490Z"/></svg>