<?xml version="1.0" standalone="no"?>
<svg xmlns:xlink="http://www.w3.org/1999/xlink" id="wave" style="transform:rotate(0deg); transition: 0.3s" viewBox="0 0 1440 490" version="1.1" xmlns="http://www.w3.org/2000/svg"><defs><linearGradient id="sw-gradient-0" x1="0" x2="0" y1="1" y2="0"><stop stop-color="rgba(255, 255, 255, 1)" offset="0%"/><stop stop-color="rgba(255, 255, 255, 1)" offset="100%"/></linearGradient></defs><path style="transform:translate(0, 0px); opacity:1" fill="url(#sw-gradient-0)" d="M0,343L80,351.2C160,359,320,376,480,359.3C640,343,800,294,960,228.7C1120,163,1280,82,1440,73.5C1600,65,1760,131,1920,187.8C2080,245,2240,294,2400,294C2560,294,2720,245,2880,220.5C3040,196,3200,196,3360,179.7C3520,163,3680,131,3840,147C4000,163,4160,229,4320,236.8C4480,245,4640,196,4800,163.3C4960,131,5120,114,5280,138.8C5440,163,5600,229,5760,277.7C5920,327,6080,359,6240,367.5C6400,376,6560,359,6720,367.5C6880,376,7040,408,7200,351.2C7360,294,7520,147,7680,98C7840,49,8000,98,8160,138.8C8320,180,8480,212,8640,253.2C8800,294,8960,343,9120,310.3C9280,278,9440,163,9600,114.3C9760,65,9920,82,10080,114.3C10240,147,10400,196,10560,245C10720,294,10880,343,11040,318.5C11200,294,11360,196,11440,147L11520,98L11520,490L11440,490C11360,490,11200,490,11040,490C10880,490,10720,490,10560,490C10400,490,10240,490,10080,490C9920,490,9760,490,9600,490C9440,490,9280,490,9120,490C8960,490,8800,490,8640,490C8480,490,8320,490,8160,490C8000,490,7840,490,7680,490C7520,490,7360,490,7200,490C7040,490,6880,490,6720,490C6560,490,6400,490,6240,490C6080,490,5920,490,5760,490C5600,490,5440,490,5280,490C5120,490,4960,490,4800,490C4640,490,4480,490,4320,490C4160,490,4000,490,3840,490C3680,490,3520,490,3360,490C3200,490,3040,490,2880,490C2720,490,2560,490,2400,490C2240,490,2080,490,1920,490C1760,490,1600,490,1440,490C1280,490,1120,490,960,490C800,490,640,490,480,490C320,490,160,490,80,490L0,490Z"/></svg>