<?xml version="1.0" standalone="no"?>
<svg xmlns:xlink="http://www.w3.org/1999/xlink" id="wave" style="transform:rotate(0deg); transition: 0.3s" viewBox="0 0 1440 490" version="1.1" xmlns="http://www.w3.org/2000/svg"><defs><linearGradient id="sw-gradient-0" x1="0" x2="0" y1="1" y2="0"><stop stop-color="rgb(0, 7, 104)" offset="0%"/><stop stop-color="rgba(255, 11, 181.704, 1)" offset="100%"/></linearGradient></defs><path style="transform:translate(0, 0px); opacity:1" fill="url(#sw-gradient-0)" d="M0,147L60,171.5C120,196,240,245,360,294C480,343,600,392,720,343C840,294,960,147,1080,73.5C1200,0,1320,0,1440,32.7C1560,65,1680,131,1800,147C1920,163,2040,131,2160,122.5C2280,114,2400,131,2520,147C2640,163,2760,180,2880,179.7C3000,180,3120,163,3240,138.8C3360,114,3480,82,3600,98C3720,114,3840,180,3960,220.5C4080,261,4200,278,4320,253.2C4440,229,4560,163,4680,122.5C4800,82,4920,65,5040,57.2C5160,49,5280,49,5400,98C5520,147,5640,245,5760,294C5880,343,6000,343,6120,343C6240,343,6360,343,6480,359.3C6600,376,6720,408,6840,383.8C6960,359,7080,278,7200,245C7320,212,7440,229,7560,196C7680,163,7800,82,7920,81.7C8040,82,8160,163,8280,187.8C8400,212,8520,180,8580,163.3L8640,147L8640,490L8580,490C8520,490,8400,490,8280,490C8160,490,8040,490,7920,490C7800,490,7680,490,7560,490C7440,490,7320,490,7200,490C7080,490,6960,490,6840,490C6720,490,6600,490,6480,490C6360,490,6240,490,6120,490C6000,490,5880,490,5760,490C5640,490,5520,490,5400,490C5280,490,5160,490,5040,490C4920,490,4800,490,4680,490C4560,490,4440,490,4320,490C4200,490,4080,490,3960,490C3840,490,3720,490,3600,490C3480,490,3360,490,3240,490C3120,490,3000,490,2880,490C2760,490,2640,490,2520,490C2400,490,2280,490,2160,490C2040,490,1920,490,1800,490C1680,490,1560,490,1440,490C1320,490,1200,490,1080,490C960,490,840,490,720,490C600,490,480,490,360,490C240,490,120,490,60,490L0,490Z"/></svg>

